<mxfile host="app.diagrams.net" agent="Mozilla/5.0 (Windows NT 10.0; Win64; x64) AppleWebKit/537.36 (KHTML, like Gecko) Chrome/128.0.0.0 Safari/537.36 Edg/128.0.0.0" version="24.7.13">
  <diagram name="PÃ¡gina-1" id="AhMKO3Rs-nyZL3TCxrPS">
    <mxGraphModel dx="3679" dy="2735" grid="1" gridSize="10" guides="1" tooltips="1" connect="1" arrows="1" fold="1" page="1" pageScale="1" pageWidth="827" pageHeight="1169" math="0" shadow="0">
      <root>
        <mxCell id="0" />
        <mxCell id="1" parent="0" />
        <mxCell id="E5guHQnxpf9Bkp1orqkg-1" style="edgeStyle=orthogonalEdgeStyle;rounded=0;orthogonalLoop=1;jettySize=auto;html=1;entryX=0;entryY=0.5;entryDx=0;entryDy=0;" parent="1" source="E5guHQnxpf9Bkp1orqkg-11" target="E5guHQnxpf9Bkp1orqkg-16" edge="1">
          <mxGeometry relative="1" as="geometry" />
        </mxCell>
        <mxCell id="E5guHQnxpf9Bkp1orqkg-2" style="edgeStyle=orthogonalEdgeStyle;rounded=0;orthogonalLoop=1;jettySize=auto;html=1;entryX=0;entryY=0.5;entryDx=0;entryDy=0;" parent="1" source="E5guHQnxpf9Bkp1orqkg-11" target="E5guHQnxpf9Bkp1orqkg-17" edge="1">
          <mxGeometry relative="1" as="geometry" />
        </mxCell>
        <mxCell id="E5guHQnxpf9Bkp1orqkg-3" style="edgeStyle=orthogonalEdgeStyle;rounded=0;orthogonalLoop=1;jettySize=auto;html=1;entryX=0;entryY=0.5;entryDx=0;entryDy=0;" parent="1" source="E5guHQnxpf9Bkp1orqkg-11" target="E5guHQnxpf9Bkp1orqkg-15" edge="1">
          <mxGeometry relative="1" as="geometry" />
        </mxCell>
        <mxCell id="E5guHQnxpf9Bkp1orqkg-4" style="edgeStyle=orthogonalEdgeStyle;rounded=0;orthogonalLoop=1;jettySize=auto;html=1;entryX=0;entryY=0.5;entryDx=0;entryDy=0;" parent="1" source="E5guHQnxpf9Bkp1orqkg-11" target="E5guHQnxpf9Bkp1orqkg-13" edge="1">
          <mxGeometry relative="1" as="geometry" />
        </mxCell>
        <mxCell id="E5guHQnxpf9Bkp1orqkg-5" style="edgeStyle=orthogonalEdgeStyle;rounded=0;orthogonalLoop=1;jettySize=auto;html=1;entryX=0;entryY=0.5;entryDx=0;entryDy=0;" parent="1" source="E5guHQnxpf9Bkp1orqkg-11" target="E5guHQnxpf9Bkp1orqkg-18" edge="1">
          <mxGeometry relative="1" as="geometry" />
        </mxCell>
        <mxCell id="E5guHQnxpf9Bkp1orqkg-6" style="edgeStyle=orthogonalEdgeStyle;rounded=0;orthogonalLoop=1;jettySize=auto;html=1;entryX=0;entryY=0.5;entryDx=0;entryDy=0;" parent="1" source="E5guHQnxpf9Bkp1orqkg-11" target="E5guHQnxpf9Bkp1orqkg-20" edge="1">
          <mxGeometry relative="1" as="geometry" />
        </mxCell>
        <mxCell id="E5guHQnxpf9Bkp1orqkg-7" style="edgeStyle=orthogonalEdgeStyle;rounded=0;orthogonalLoop=1;jettySize=auto;html=1;entryX=0;entryY=0.5;entryDx=0;entryDy=0;" parent="1" source="E5guHQnxpf9Bkp1orqkg-11" target="E5guHQnxpf9Bkp1orqkg-19" edge="1">
          <mxGeometry relative="1" as="geometry" />
        </mxCell>
        <mxCell id="E5guHQnxpf9Bkp1orqkg-8" style="edgeStyle=orthogonalEdgeStyle;rounded=0;orthogonalLoop=1;jettySize=auto;html=1;entryX=0;entryY=0.5;entryDx=0;entryDy=0;" parent="1" source="E5guHQnxpf9Bkp1orqkg-11" target="E5guHQnxpf9Bkp1orqkg-21" edge="1">
          <mxGeometry relative="1" as="geometry" />
        </mxCell>
        <mxCell id="E5guHQnxpf9Bkp1orqkg-9" style="edgeStyle=orthogonalEdgeStyle;rounded=0;orthogonalLoop=1;jettySize=auto;html=1;entryX=0;entryY=0.5;entryDx=0;entryDy=0;" parent="1" source="E5guHQnxpf9Bkp1orqkg-11" target="E5guHQnxpf9Bkp1orqkg-12" edge="1">
          <mxGeometry relative="1" as="geometry" />
        </mxCell>
        <mxCell id="LzaTwzIRmnWLG_7O5klw-88" style="edgeStyle=orthogonalEdgeStyle;rounded=0;orthogonalLoop=1;jettySize=auto;html=1;" edge="1" parent="1" source="E5guHQnxpf9Bkp1orqkg-11" target="LzaTwzIRmnWLG_7O5klw-89">
          <mxGeometry relative="1" as="geometry">
            <mxPoint x="-210" y="650" as="targetPoint" />
          </mxGeometry>
        </mxCell>
        <mxCell id="E5guHQnxpf9Bkp1orqkg-11" value="&lt;div&gt;CLIENTE&lt;/div&gt;" style="rounded=0;whiteSpace=wrap;html=1;fillColor=#dae8fc;strokeColor=#6c8ebf;" parent="1" vertex="1">
          <mxGeometry x="114" y="366" width="120" height="60" as="geometry" />
        </mxCell>
        <mxCell id="E5guHQnxpf9Bkp1orqkg-12" value="id_CLIENTE (pk)" style="ellipse;whiteSpace=wrap;html=1;fillColor=#f8cecc;strokeColor=#b85450;" parent="1" vertex="1">
          <mxGeometry x="284" y="76" width="120" height="80" as="geometry" />
        </mxCell>
        <mxCell id="E5guHQnxpf9Bkp1orqkg-13" value="fecvha de nacimeinto" style="ellipse;whiteSpace=wrap;html=1;fillColor=#a0522d;strokeColor=#6D1F00;fontColor=#ffffff;" parent="1" vertex="1">
          <mxGeometry x="274" y="446" width="120" height="50" as="geometry" />
        </mxCell>
        <mxCell id="E5guHQnxpf9Bkp1orqkg-14" value="celular" style="ellipse;whiteSpace=wrap;html=1;fillColor=#a0522d;strokeColor=#6D1F00;fontColor=#ffffff;" parent="1" vertex="1">
          <mxGeometry x="274" y="716" width="120" height="50" as="geometry" />
        </mxCell>
        <mxCell id="E5guHQnxpf9Bkp1orqkg-15" value="DIRECION&amp;nbsp;" style="ellipse;whiteSpace=wrap;html=1;fillColor=#a0522d;strokeColor=#6D1F00;fontColor=#ffffff;" parent="1" vertex="1">
          <mxGeometry x="294" y="384" width="120" height="42" as="geometry" />
        </mxCell>
        <mxCell id="E5guHQnxpf9Bkp1orqkg-16" value="aPELLIDOS" style="ellipse;whiteSpace=wrap;html=1;fillColor=#a0522d;strokeColor=#6D1F00;fontColor=#ffffff;" parent="1" vertex="1">
          <mxGeometry x="284" y="186" width="110" height="40" as="geometry" />
        </mxCell>
        <mxCell id="E5guHQnxpf9Bkp1orqkg-17" value="nombres" style="ellipse;whiteSpace=wrap;html=1;fillColor=#a0522d;strokeColor=#6D1F00;fontColor=#ffffff;" parent="1" vertex="1">
          <mxGeometry x="284" y="296" width="120" height="40" as="geometry" />
        </mxCell>
        <mxCell id="E5guHQnxpf9Bkp1orqkg-18" value="ESTADO (ACTIVP/INACTIVO)" style="ellipse;whiteSpace=wrap;html=1;fillColor=#a0522d;strokeColor=#6D1F00;fontColor=#ffffff;" parent="1" vertex="1">
          <mxGeometry x="274" y="511" width="120" height="50" as="geometry" />
        </mxCell>
        <mxCell id="E5guHQnxpf9Bkp1orqkg-19" value="FECHA DE REGISTRO" style="ellipse;whiteSpace=wrap;html=1;fillColor=#a0522d;strokeColor=#6D1F00;fontColor=#ffffff;" parent="1" vertex="1">
          <mxGeometry x="274" y="646" width="120" height="50" as="geometry" />
        </mxCell>
        <mxCell id="E5guHQnxpf9Bkp1orqkg-20" value="PASSWORD" style="ellipse;whiteSpace=wrap;html=1;fillColor=#a0522d;strokeColor=#6D1F00;fontColor=#ffffff;" parent="1" vertex="1">
          <mxGeometry x="274" y="576" width="120" height="50" as="geometry" />
        </mxCell>
        <mxCell id="E5guHQnxpf9Bkp1orqkg-21" value="correo" style="ellipse;whiteSpace=wrap;html=1;fillColor=#a0522d;strokeColor=#6D1F00;fontColor=#ffffff;" parent="1" vertex="1">
          <mxGeometry x="274" y="795" width="120" height="50" as="geometry" />
        </mxCell>
        <mxCell id="E5guHQnxpf9Bkp1orqkg-22" style="edgeStyle=orthogonalEdgeStyle;rounded=0;orthogonalLoop=1;jettySize=auto;html=1;entryX=0;entryY=0.5;entryDx=0;entryDy=0;" parent="1" source="E5guHQnxpf9Bkp1orqkg-11" target="E5guHQnxpf9Bkp1orqkg-14" edge="1">
          <mxGeometry relative="1" as="geometry" />
        </mxCell>
        <mxCell id="E5guHQnxpf9Bkp1orqkg-25" value="SISTEMA DE VENTAS DE UN GRIFO" style="text;html=1;align=center;verticalAlign=middle;resizable=0;points=[];autosize=1;strokeColor=none;fillColor=none;" parent="1" vertex="1">
          <mxGeometry x="370" y="-490" width="230" height="30" as="geometry" />
        </mxCell>
        <mxCell id="E5guHQnxpf9Bkp1orqkg-32" style="edgeStyle=orthogonalEdgeStyle;rounded=0;orthogonalLoop=1;jettySize=auto;html=1;entryX=0;entryY=0.5;entryDx=0;entryDy=0;" parent="1" source="E5guHQnxpf9Bkp1orqkg-26" target="E5guHQnxpf9Bkp1orqkg-28" edge="1">
          <mxGeometry relative="1" as="geometry" />
        </mxCell>
        <mxCell id="E5guHQnxpf9Bkp1orqkg-33" style="edgeStyle=orthogonalEdgeStyle;rounded=0;orthogonalLoop=1;jettySize=auto;html=1;entryX=0;entryY=0.5;entryDx=0;entryDy=0;" parent="1" source="E5guHQnxpf9Bkp1orqkg-26" target="E5guHQnxpf9Bkp1orqkg-29" edge="1">
          <mxGeometry relative="1" as="geometry" />
        </mxCell>
        <mxCell id="E5guHQnxpf9Bkp1orqkg-34" style="edgeStyle=orthogonalEdgeStyle;rounded=0;orthogonalLoop=1;jettySize=auto;html=1;entryX=0;entryY=0.5;entryDx=0;entryDy=0;" parent="1" source="E5guHQnxpf9Bkp1orqkg-26" target="E5guHQnxpf9Bkp1orqkg-27" edge="1">
          <mxGeometry relative="1" as="geometry" />
        </mxCell>
        <mxCell id="LzaTwzIRmnWLG_7O5klw-7" style="edgeStyle=orthogonalEdgeStyle;rounded=0;orthogonalLoop=1;jettySize=auto;html=1;entryX=0;entryY=0.5;entryDx=0;entryDy=0;" edge="1" parent="1" source="E5guHQnxpf9Bkp1orqkg-26" target="LzaTwzIRmnWLG_7O5klw-4">
          <mxGeometry relative="1" as="geometry" />
        </mxCell>
        <mxCell id="LzaTwzIRmnWLG_7O5klw-8" style="edgeStyle=orthogonalEdgeStyle;rounded=0;orthogonalLoop=1;jettySize=auto;html=1;entryX=0;entryY=0.5;entryDx=0;entryDy=0;" edge="1" parent="1" source="E5guHQnxpf9Bkp1orqkg-26" target="LzaTwzIRmnWLG_7O5klw-5">
          <mxGeometry relative="1" as="geometry" />
        </mxCell>
        <mxCell id="LzaTwzIRmnWLG_7O5klw-9" style="edgeStyle=orthogonalEdgeStyle;rounded=0;orthogonalLoop=1;jettySize=auto;html=1;entryX=0;entryY=0.5;entryDx=0;entryDy=0;" edge="1" parent="1" source="E5guHQnxpf9Bkp1orqkg-26" target="LzaTwzIRmnWLG_7O5klw-3">
          <mxGeometry relative="1" as="geometry" />
        </mxCell>
        <mxCell id="LzaTwzIRmnWLG_7O5klw-10" style="edgeStyle=orthogonalEdgeStyle;rounded=0;orthogonalLoop=1;jettySize=auto;html=1;entryX=0;entryY=0.5;entryDx=0;entryDy=0;" edge="1" parent="1" source="E5guHQnxpf9Bkp1orqkg-26" target="LzaTwzIRmnWLG_7O5klw-2">
          <mxGeometry relative="1" as="geometry" />
        </mxCell>
        <mxCell id="LzaTwzIRmnWLG_7O5klw-11" style="edgeStyle=orthogonalEdgeStyle;rounded=0;orthogonalLoop=1;jettySize=auto;html=1;entryX=0;entryY=0.5;entryDx=0;entryDy=0;" edge="1" parent="1" source="E5guHQnxpf9Bkp1orqkg-26" target="LzaTwzIRmnWLG_7O5klw-1">
          <mxGeometry relative="1" as="geometry" />
        </mxCell>
        <mxCell id="LzaTwzIRmnWLG_7O5klw-93" style="edgeStyle=orthogonalEdgeStyle;rounded=0;orthogonalLoop=1;jettySize=auto;html=1;" edge="1" parent="1" source="E5guHQnxpf9Bkp1orqkg-26" target="LzaTwzIRmnWLG_7O5klw-94">
          <mxGeometry relative="1" as="geometry">
            <mxPoint x="-910" y="-770" as="targetPoint" />
          </mxGeometry>
        </mxCell>
        <mxCell id="E5guHQnxpf9Bkp1orqkg-26" value="RESTARANTES O COMERCIOS&amp;nbsp;" style="rounded=0;whiteSpace=wrap;html=1;fillColor=#dae8fc;strokeColor=#6c8ebf;" parent="1" vertex="1">
          <mxGeometry x="390" y="1140" width="120" height="60" as="geometry" />
        </mxCell>
        <mxCell id="E5guHQnxpf9Bkp1orqkg-27" value="Direcion" style="ellipse;whiteSpace=wrap;html=1;fillColor=#a0522d;strokeColor=#6D1F00;fontColor=#ffffff;" parent="1" vertex="1">
          <mxGeometry x="630" y="1300" width="120" height="40" as="geometry" />
        </mxCell>
        <mxCell id="E5guHQnxpf9Bkp1orqkg-28" value="id_RESTAURANTE" style="ellipse;whiteSpace=wrap;html=1;fillColor=#f8cecc;strokeColor=#b85450;" parent="1" vertex="1">
          <mxGeometry x="630" y="1180" width="120" height="40" as="geometry" />
        </mxCell>
        <mxCell id="E5guHQnxpf9Bkp1orqkg-29" value="Nombre" style="ellipse;whiteSpace=wrap;html=1;fillColor=#a0522d;strokeColor=#6D1F00;fontColor=#ffffff;" parent="1" vertex="1">
          <mxGeometry x="630" y="1240" width="120" height="40" as="geometry" />
        </mxCell>
        <mxCell id="E5guHQnxpf9Bkp1orqkg-41" style="edgeStyle=orthogonalEdgeStyle;rounded=0;orthogonalLoop=1;jettySize=auto;html=1;entryX=1;entryY=0.5;entryDx=0;entryDy=0;" parent="1" source="E5guHQnxpf9Bkp1orqkg-35" target="E5guHQnxpf9Bkp1orqkg-37" edge="1">
          <mxGeometry relative="1" as="geometry" />
        </mxCell>
        <mxCell id="E5guHQnxpf9Bkp1orqkg-42" style="edgeStyle=orthogonalEdgeStyle;rounded=0;orthogonalLoop=1;jettySize=auto;html=1;entryX=1;entryY=0.5;entryDx=0;entryDy=0;" parent="1" source="E5guHQnxpf9Bkp1orqkg-35" target="E5guHQnxpf9Bkp1orqkg-40" edge="1">
          <mxGeometry relative="1" as="geometry" />
        </mxCell>
        <mxCell id="E5guHQnxpf9Bkp1orqkg-43" style="edgeStyle=orthogonalEdgeStyle;rounded=0;orthogonalLoop=1;jettySize=auto;html=1;entryX=1;entryY=0.5;entryDx=0;entryDy=0;" parent="1" source="E5guHQnxpf9Bkp1orqkg-35" target="E5guHQnxpf9Bkp1orqkg-39" edge="1">
          <mxGeometry relative="1" as="geometry" />
        </mxCell>
        <mxCell id="E5guHQnxpf9Bkp1orqkg-44" style="edgeStyle=orthogonalEdgeStyle;rounded=0;orthogonalLoop=1;jettySize=auto;html=1;entryX=1;entryY=0.5;entryDx=0;entryDy=0;" parent="1" source="E5guHQnxpf9Bkp1orqkg-35" target="E5guHQnxpf9Bkp1orqkg-38" edge="1">
          <mxGeometry relative="1" as="geometry" />
        </mxCell>
        <mxCell id="LzaTwzIRmnWLG_7O5klw-16" style="edgeStyle=orthogonalEdgeStyle;rounded=0;orthogonalLoop=1;jettySize=auto;html=1;entryX=1;entryY=0.5;entryDx=0;entryDy=0;" edge="1" parent="1" source="E5guHQnxpf9Bkp1orqkg-35" target="LzaTwzIRmnWLG_7O5klw-13">
          <mxGeometry relative="1" as="geometry" />
        </mxCell>
        <mxCell id="LzaTwzIRmnWLG_7O5klw-17" style="edgeStyle=orthogonalEdgeStyle;rounded=0;orthogonalLoop=1;jettySize=auto;html=1;entryX=1;entryY=0.5;entryDx=0;entryDy=0;" edge="1" parent="1" source="E5guHQnxpf9Bkp1orqkg-35" target="LzaTwzIRmnWLG_7O5klw-14">
          <mxGeometry relative="1" as="geometry" />
        </mxCell>
        <mxCell id="LzaTwzIRmnWLG_7O5klw-18" style="edgeStyle=orthogonalEdgeStyle;rounded=0;orthogonalLoop=1;jettySize=auto;html=1;entryX=1;entryY=0.5;entryDx=0;entryDy=0;" edge="1" parent="1" source="E5guHQnxpf9Bkp1orqkg-35" target="LzaTwzIRmnWLG_7O5klw-12">
          <mxGeometry relative="1" as="geometry" />
        </mxCell>
        <mxCell id="LzaTwzIRmnWLG_7O5klw-95" style="edgeStyle=orthogonalEdgeStyle;rounded=0;orthogonalLoop=1;jettySize=auto;html=1;entryX=0;entryY=0.5;entryDx=0;entryDy=0;" edge="1" parent="1" source="E5guHQnxpf9Bkp1orqkg-35" target="LzaTwzIRmnWLG_7O5klw-94">
          <mxGeometry relative="1" as="geometry" />
        </mxCell>
        <mxCell id="E5guHQnxpf9Bkp1orqkg-35" value="productos" style="rounded=0;whiteSpace=wrap;html=1;fillColor=#dae8fc;strokeColor=#6c8ebf;" parent="1" vertex="1">
          <mxGeometry x="320" y="1800" width="120" height="60" as="geometry" />
        </mxCell>
        <mxCell id="E5guHQnxpf9Bkp1orqkg-37" value="id_productos (PK)" style="ellipse;whiteSpace=wrap;html=1;fillColor=#f8cecc;strokeColor=#b85450;" parent="1" vertex="1">
          <mxGeometry x="144" y="1620" width="120" height="40" as="geometry" />
        </mxCell>
        <mxCell id="E5guHQnxpf9Bkp1orqkg-38" value="precio" style="ellipse;whiteSpace=wrap;html=1;fillColor=#a0522d;strokeColor=#6D1F00;fontColor=#ffffff;" parent="1" vertex="1">
          <mxGeometry x="144" y="1830" width="120" height="40" as="geometry" />
        </mxCell>
        <mxCell id="E5guHQnxpf9Bkp1orqkg-39" value="descripcion" style="ellipse;whiteSpace=wrap;html=1;fillColor=#a0522d;strokeColor=#6D1F00;fontColor=#ffffff;" parent="1" vertex="1">
          <mxGeometry x="144" y="1760" width="120" height="40" as="geometry" />
        </mxCell>
        <mxCell id="E5guHQnxpf9Bkp1orqkg-40" value="nombre" style="ellipse;whiteSpace=wrap;html=1;fillColor=#a0522d;strokeColor=#6D1F00;fontColor=#ffffff;" parent="1" vertex="1">
          <mxGeometry x="144" y="1690" width="120" height="40" as="geometry" />
        </mxCell>
        <mxCell id="E5guHQnxpf9Bkp1orqkg-46" style="edgeStyle=orthogonalEdgeStyle;rounded=0;orthogonalLoop=1;jettySize=auto;html=1;entryX=1;entryY=0.5;entryDx=0;entryDy=0;" parent="1" source="E5guHQnxpf9Bkp1orqkg-50" target="E5guHQnxpf9Bkp1orqkg-51" edge="1">
          <mxGeometry relative="1" as="geometry" />
        </mxCell>
        <mxCell id="E5guHQnxpf9Bkp1orqkg-47" style="edgeStyle=orthogonalEdgeStyle;rounded=0;orthogonalLoop=1;jettySize=auto;html=1;entryX=1;entryY=0.5;entryDx=0;entryDy=0;" parent="1" source="E5guHQnxpf9Bkp1orqkg-50" target="E5guHQnxpf9Bkp1orqkg-54" edge="1">
          <mxGeometry relative="1" as="geometry" />
        </mxCell>
        <mxCell id="E5guHQnxpf9Bkp1orqkg-48" style="edgeStyle=orthogonalEdgeStyle;rounded=0;orthogonalLoop=1;jettySize=auto;html=1;entryX=1;entryY=0.5;entryDx=0;entryDy=0;" parent="1" source="E5guHQnxpf9Bkp1orqkg-50" target="E5guHQnxpf9Bkp1orqkg-53" edge="1">
          <mxGeometry relative="1" as="geometry" />
        </mxCell>
        <mxCell id="E5guHQnxpf9Bkp1orqkg-56" style="edgeStyle=orthogonalEdgeStyle;rounded=0;orthogonalLoop=1;jettySize=auto;html=1;entryX=1;entryY=0.5;entryDx=0;entryDy=0;" parent="1" source="E5guHQnxpf9Bkp1orqkg-50" target="E5guHQnxpf9Bkp1orqkg-55" edge="1">
          <mxGeometry relative="1" as="geometry" />
        </mxCell>
        <mxCell id="LzaTwzIRmnWLG_7O5klw-100" style="edgeStyle=orthogonalEdgeStyle;rounded=0;orthogonalLoop=1;jettySize=auto;html=1;entryX=0.5;entryY=0;entryDx=0;entryDy=0;exitX=0.5;exitY=1;exitDx=0;exitDy=0;" edge="1" parent="1" source="E5guHQnxpf9Bkp1orqkg-50" target="LzaTwzIRmnWLG_7O5klw-99">
          <mxGeometry relative="1" as="geometry" />
        </mxCell>
        <mxCell id="E5guHQnxpf9Bkp1orqkg-50" value="detalle de pedidos" style="rounded=0;whiteSpace=wrap;html=1;fillColor=#dae8fc;strokeColor=#6c8ebf;" parent="1" vertex="1">
          <mxGeometry x="-504" y="332" width="120" height="60" as="geometry" />
        </mxCell>
        <mxCell id="E5guHQnxpf9Bkp1orqkg-51" value="id_detalle (PK)" style="ellipse;whiteSpace=wrap;html=1;fillColor=#f8cecc;strokeColor=#b85450;" parent="1" vertex="1">
          <mxGeometry x="-680" y="152" width="120" height="40" as="geometry" />
        </mxCell>
        <mxCell id="E5guHQnxpf9Bkp1orqkg-53" value="precio_unitario" style="ellipse;whiteSpace=wrap;html=1;fillColor=#a0522d;strokeColor=#6D1F00;fontColor=#ffffff;" parent="1" vertex="1">
          <mxGeometry x="-680" y="292" width="120" height="40" as="geometry" />
        </mxCell>
        <mxCell id="E5guHQnxpf9Bkp1orqkg-54" value="icantidad" style="ellipse;whiteSpace=wrap;html=1;fillColor=#a0522d;strokeColor=#6D1F00;fontColor=#ffffff;" parent="1" vertex="1">
          <mxGeometry x="-680" y="222" width="120" height="40" as="geometry" />
        </mxCell>
        <mxCell id="E5guHQnxpf9Bkp1orqkg-55" value="id_producto (FK)" style="ellipse;whiteSpace=wrap;html=1;fillColor=#e1d5e7;strokeColor=#9673a6;" parent="1" vertex="1">
          <mxGeometry x="-680" y="419" width="120" height="40" as="geometry" />
        </mxCell>
        <mxCell id="E5guHQnxpf9Bkp1orqkg-57" style="edgeStyle=orthogonalEdgeStyle;rounded=0;orthogonalLoop=1;jettySize=auto;html=1;entryX=1;entryY=0.5;entryDx=0;entryDy=0;" parent="1" source="E5guHQnxpf9Bkp1orqkg-62" target="E5guHQnxpf9Bkp1orqkg-63" edge="1">
          <mxGeometry relative="1" as="geometry" />
        </mxCell>
        <mxCell id="E5guHQnxpf9Bkp1orqkg-58" style="edgeStyle=orthogonalEdgeStyle;rounded=0;orthogonalLoop=1;jettySize=auto;html=1;entryX=1;entryY=0.5;entryDx=0;entryDy=0;" parent="1" source="E5guHQnxpf9Bkp1orqkg-62" target="E5guHQnxpf9Bkp1orqkg-66" edge="1">
          <mxGeometry relative="1" as="geometry" />
        </mxCell>
        <mxCell id="E5guHQnxpf9Bkp1orqkg-59" style="edgeStyle=orthogonalEdgeStyle;rounded=0;orthogonalLoop=1;jettySize=auto;html=1;entryX=1;entryY=0.5;entryDx=0;entryDy=0;" parent="1" source="E5guHQnxpf9Bkp1orqkg-62" target="E5guHQnxpf9Bkp1orqkg-65" edge="1">
          <mxGeometry relative="1" as="geometry" />
        </mxCell>
        <mxCell id="E5guHQnxpf9Bkp1orqkg-60" style="edgeStyle=orthogonalEdgeStyle;rounded=0;orthogonalLoop=1;jettySize=auto;html=1;entryX=1;entryY=0.5;entryDx=0;entryDy=0;" parent="1" source="E5guHQnxpf9Bkp1orqkg-62" target="E5guHQnxpf9Bkp1orqkg-64" edge="1">
          <mxGeometry relative="1" as="geometry" />
        </mxCell>
        <mxCell id="E5guHQnxpf9Bkp1orqkg-61" style="edgeStyle=orthogonalEdgeStyle;rounded=0;orthogonalLoop=1;jettySize=auto;html=1;entryX=1;entryY=0.5;entryDx=0;entryDy=0;" parent="1" source="E5guHQnxpf9Bkp1orqkg-62" target="E5guHQnxpf9Bkp1orqkg-67" edge="1">
          <mxGeometry relative="1" as="geometry" />
        </mxCell>
        <mxCell id="LzaTwzIRmnWLG_7O5klw-23" style="edgeStyle=orthogonalEdgeStyle;rounded=0;orthogonalLoop=1;jettySize=auto;html=1;entryX=1;entryY=0.5;entryDx=0;entryDy=0;" edge="1" parent="1" source="E5guHQnxpf9Bkp1orqkg-62" target="LzaTwzIRmnWLG_7O5klw-20">
          <mxGeometry relative="1" as="geometry" />
        </mxCell>
        <mxCell id="LzaTwzIRmnWLG_7O5klw-24" style="edgeStyle=orthogonalEdgeStyle;rounded=0;orthogonalLoop=1;jettySize=auto;html=1;entryX=1;entryY=0.5;entryDx=0;entryDy=0;" edge="1" parent="1" source="E5guHQnxpf9Bkp1orqkg-62" target="LzaTwzIRmnWLG_7O5klw-19">
          <mxGeometry relative="1" as="geometry" />
        </mxCell>
        <mxCell id="LzaTwzIRmnWLG_7O5klw-98" style="edgeStyle=orthogonalEdgeStyle;rounded=0;orthogonalLoop=1;jettySize=auto;html=1;" edge="1" parent="1" source="E5guHQnxpf9Bkp1orqkg-62" target="LzaTwzIRmnWLG_7O5klw-99">
          <mxGeometry relative="1" as="geometry">
            <mxPoint x="-270" y="570" as="targetPoint" />
          </mxGeometry>
        </mxCell>
        <mxCell id="LzaTwzIRmnWLG_7O5klw-108" style="edgeStyle=orthogonalEdgeStyle;rounded=0;orthogonalLoop=1;jettySize=auto;html=1;entryX=0;entryY=0.5;entryDx=0;entryDy=0;" edge="1" parent="1" source="E5guHQnxpf9Bkp1orqkg-62" target="LzaTwzIRmnWLG_7O5klw-109">
          <mxGeometry relative="1" as="geometry">
            <mxPoint x="-340" y="1060" as="targetPoint" />
          </mxGeometry>
        </mxCell>
        <mxCell id="LzaTwzIRmnWLG_7O5klw-105" style="edgeStyle=orthogonalEdgeStyle;rounded=0;orthogonalLoop=1;jettySize=auto;html=1;entryX=0.5;entryY=0;entryDx=0;entryDy=0;" edge="1" parent="1" source="E5guHQnxpf9Bkp1orqkg-62" target="LzaTwzIRmnWLG_7O5klw-36">
          <mxGeometry relative="1" as="geometry">
            <mxPoint x="-270" y="1409.999999999999" as="targetPoint" />
          </mxGeometry>
        </mxCell>
        <mxCell id="E5guHQnxpf9Bkp1orqkg-62" value="pedido" style="rounded=0;whiteSpace=wrap;html=1;fillColor=#dae8fc;strokeColor=#6c8ebf;" parent="1" vertex="1">
          <mxGeometry x="-464" y="845" width="120" height="60" as="geometry" />
        </mxCell>
        <mxCell id="E5guHQnxpf9Bkp1orqkg-63" value="id_pedido (PK)" style="ellipse;whiteSpace=wrap;html=1;fillColor=#f8cecc;strokeColor=#b85450;" parent="1" vertex="1">
          <mxGeometry x="-640" y="665" width="120" height="40" as="geometry" />
        </mxCell>
        <mxCell id="E5guHQnxpf9Bkp1orqkg-64" value="metodo de pago" style="ellipse;whiteSpace=wrap;html=1;fillColor=#a0522d;strokeColor=#6D1F00;fontColor=#ffffff;" parent="1" vertex="1">
          <mxGeometry x="-640" y="875" width="120" height="40" as="geometry" />
        </mxCell>
        <mxCell id="E5guHQnxpf9Bkp1orqkg-65" value="estado_de pedido" style="ellipse;whiteSpace=wrap;html=1;fillColor=#a0522d;strokeColor=#6D1F00;fontColor=#ffffff;" parent="1" vertex="1">
          <mxGeometry x="-640" y="805" width="120" height="40" as="geometry" />
        </mxCell>
        <mxCell id="E5guHQnxpf9Bkp1orqkg-66" value="fecha de pedido" style="ellipse;whiteSpace=wrap;html=1;fillColor=#a0522d;strokeColor=#6D1F00;fontColor=#ffffff;" parent="1" vertex="1">
          <mxGeometry x="-640" y="735" width="120" height="40" as="geometry" />
        </mxCell>
        <mxCell id="E5guHQnxpf9Bkp1orqkg-67" value="costo_envio" style="ellipse;whiteSpace=wrap;html=1;fillColor=#a0522d;strokeColor=#6D1F00;fontColor=#ffffff;" parent="1" vertex="1">
          <mxGeometry x="-640" y="932" width="120" height="40" as="geometry" />
        </mxCell>
        <mxCell id="E5guHQnxpf9Bkp1orqkg-72" style="edgeStyle=orthogonalEdgeStyle;rounded=0;orthogonalLoop=1;jettySize=auto;html=1;entryX=0;entryY=0.5;entryDx=0;entryDy=0;" parent="1" source="E5guHQnxpf9Bkp1orqkg-68" target="E5guHQnxpf9Bkp1orqkg-70" edge="1">
          <mxGeometry relative="1" as="geometry" />
        </mxCell>
        <mxCell id="E5guHQnxpf9Bkp1orqkg-73" style="edgeStyle=orthogonalEdgeStyle;rounded=0;orthogonalLoop=1;jettySize=auto;html=1;entryX=0;entryY=0.5;entryDx=0;entryDy=0;" parent="1" source="E5guHQnxpf9Bkp1orqkg-68" target="E5guHQnxpf9Bkp1orqkg-69" edge="1">
          <mxGeometry relative="1" as="geometry" />
        </mxCell>
        <mxCell id="E5guHQnxpf9Bkp1orqkg-74" style="edgeStyle=orthogonalEdgeStyle;rounded=0;orthogonalLoop=1;jettySize=auto;html=1;entryX=0;entryY=0.5;entryDx=0;entryDy=0;" parent="1" source="E5guHQnxpf9Bkp1orqkg-68" target="E5guHQnxpf9Bkp1orqkg-71" edge="1">
          <mxGeometry relative="1" as="geometry" />
        </mxCell>
        <mxCell id="E5guHQnxpf9Bkp1orqkg-77" style="edgeStyle=orthogonalEdgeStyle;rounded=0;orthogonalLoop=1;jettySize=auto;html=1;entryX=0;entryY=0.5;entryDx=0;entryDy=0;" parent="1" source="E5guHQnxpf9Bkp1orqkg-68" target="E5guHQnxpf9Bkp1orqkg-76" edge="1">
          <mxGeometry relative="1" as="geometry" />
        </mxCell>
        <mxCell id="E5guHQnxpf9Bkp1orqkg-82" style="edgeStyle=orthogonalEdgeStyle;rounded=0;orthogonalLoop=1;jettySize=auto;html=1;entryX=0;entryY=0.5;entryDx=0;entryDy=0;" parent="1" source="E5guHQnxpf9Bkp1orqkg-68" target="E5guHQnxpf9Bkp1orqkg-80" edge="1">
          <mxGeometry relative="1" as="geometry" />
        </mxCell>
        <mxCell id="E5guHQnxpf9Bkp1orqkg-83" style="edgeStyle=orthogonalEdgeStyle;rounded=0;orthogonalLoop=1;jettySize=auto;html=1;entryX=0;entryY=0.5;entryDx=0;entryDy=0;" parent="1" source="E5guHQnxpf9Bkp1orqkg-68" target="E5guHQnxpf9Bkp1orqkg-81" edge="1">
          <mxGeometry relative="1" as="geometry" />
        </mxCell>
        <mxCell id="LzaTwzIRmnWLG_7O5klw-110" style="edgeStyle=orthogonalEdgeStyle;rounded=0;orthogonalLoop=1;jettySize=auto;html=1;entryX=1;entryY=0.5;entryDx=0;entryDy=0;" edge="1" parent="1" source="E5guHQnxpf9Bkp1orqkg-68" target="LzaTwzIRmnWLG_7O5klw-109">
          <mxGeometry relative="1" as="geometry" />
        </mxCell>
        <mxCell id="E5guHQnxpf9Bkp1orqkg-68" value="pagos" style="rounded=0;whiteSpace=wrap;html=1;fillColor=#dae8fc;strokeColor=#6c8ebf;" parent="1" vertex="1">
          <mxGeometry x="-90" y="1043" width="120" height="60" as="geometry" />
        </mxCell>
        <mxCell id="E5guHQnxpf9Bkp1orqkg-69" value="fecha_pago" style="ellipse;whiteSpace=wrap;html=1;fillColor=#a0522d;strokeColor=#6D1F00;fontColor=#ffffff;" parent="1" vertex="1">
          <mxGeometry x="120" y="1083" width="120" height="40" as="geometry" />
        </mxCell>
        <mxCell id="E5guHQnxpf9Bkp1orqkg-70" value="id_pagos" style="ellipse;whiteSpace=wrap;html=1;fillColor=#f8cecc;strokeColor=#b85450;" parent="1" vertex="1">
          <mxGeometry x="120" y="973" width="120" height="40" as="geometry" />
        </mxCell>
        <mxCell id="E5guHQnxpf9Bkp1orqkg-71" value="monto" style="ellipse;whiteSpace=wrap;html=1;fillColor=#a0522d;strokeColor=#6D1F00;fontColor=#ffffff;" parent="1" vertex="1">
          <mxGeometry x="120" y="1033" width="120" height="40" as="geometry" />
        </mxCell>
        <mxCell id="E5guHQnxpf9Bkp1orqkg-76" value="id_pedido (FK)" style="ellipse;whiteSpace=wrap;html=1;fillColor=#e1d5e7;strokeColor=#9673a6;" parent="1" vertex="1">
          <mxGeometry x="115" y="1263" width="120" height="37" as="geometry" />
        </mxCell>
        <mxCell id="E5guHQnxpf9Bkp1orqkg-80" value="estdo_pago" style="ellipse;whiteSpace=wrap;html=1;fillColor=#a0522d;strokeColor=#6D1F00;fontColor=#ffffff;" parent="1" vertex="1">
          <mxGeometry x="115" y="1153" width="120" height="40" as="geometry" />
        </mxCell>
        <mxCell id="E5guHQnxpf9Bkp1orqkg-81" value="metodo_pago" style="ellipse;whiteSpace=wrap;html=1;fillColor=#a0522d;strokeColor=#6D1F00;fontColor=#ffffff;" parent="1" vertex="1">
          <mxGeometry x="115" y="1200" width="120" height="40" as="geometry" />
        </mxCell>
        <mxCell id="LzaTwzIRmnWLG_7O5klw-1" value="estado (actvo/inactivo)" style="ellipse;whiteSpace=wrap;html=1;fillColor=#a0522d;strokeColor=#6D1F00;fontColor=#ffffff;" vertex="1" parent="1">
          <mxGeometry x="210" y="-170" width="120" height="40" as="geometry" />
        </mxCell>
        <mxCell id="LzaTwzIRmnWLG_7O5klw-2" value="oharaio de cierre" style="ellipse;whiteSpace=wrap;html=1;fillColor=#a0522d;strokeColor=#6D1F00;fontColor=#ffffff;" vertex="1" parent="1">
          <mxGeometry x="205" y="-220" width="120" height="40" as="geometry" />
        </mxCell>
        <mxCell id="LzaTwzIRmnWLG_7O5klw-3" value="horario de apertura" style="ellipse;whiteSpace=wrap;html=1;fillColor=#a0522d;strokeColor=#6D1F00;fontColor=#ffffff;" vertex="1" parent="1">
          <mxGeometry x="215" y="-290" width="120" height="40" as="geometry" />
        </mxCell>
        <mxCell id="LzaTwzIRmnWLG_7O5klw-4" value="telefono" style="ellipse;whiteSpace=wrap;html=1;fillColor=#a0522d;strokeColor=#6D1F00;fontColor=#ffffff;" vertex="1" parent="1">
          <mxGeometry x="230" y="-440" width="120" height="40" as="geometry" />
        </mxCell>
        <mxCell id="LzaTwzIRmnWLG_7O5klw-5" value="correo" style="ellipse;whiteSpace=wrap;html=1;fillColor=#a0522d;strokeColor=#6D1F00;fontColor=#ffffff;" vertex="1" parent="1">
          <mxGeometry x="230" y="-380" width="120" height="40" as="geometry" />
        </mxCell>
        <mxCell id="LzaTwzIRmnWLG_7O5klw-12" value="id_restaurante&amp;nbsp; (FK)" style="ellipse;whiteSpace=wrap;html=1;fillColor=#e1d5e7;strokeColor=#9673a6;" vertex="1" parent="1">
          <mxGeometry x="-696" y="-115" width="120" height="40" as="geometry" />
        </mxCell>
        <mxCell id="LzaTwzIRmnWLG_7O5klw-13" value="disponibilidad" style="ellipse;whiteSpace=wrap;html=1;fillColor=#a0522d;strokeColor=#6D1F00;fontColor=#ffffff;" vertex="1" parent="1">
          <mxGeometry x="-696" y="-260" width="120" height="40" as="geometry" />
        </mxCell>
        <mxCell id="LzaTwzIRmnWLG_7O5klw-14" value="imagen_url" style="ellipse;whiteSpace=wrap;html=1;fillColor=#a0522d;strokeColor=#6D1F00;fontColor=#ffffff;" vertex="1" parent="1">
          <mxGeometry x="-696" y="-190" width="120" height="40" as="geometry" />
        </mxCell>
        <mxCell id="LzaTwzIRmnWLG_7O5klw-19" value="total" style="ellipse;whiteSpace=wrap;html=1;fillColor=#a0522d;strokeColor=#6D1F00;fontColor=#ffffff;" vertex="1" parent="1">
          <mxGeometry x="-640" y="988" width="120" height="40" as="geometry" />
        </mxCell>
        <mxCell id="LzaTwzIRmnWLG_7O5klw-20" value="id_cliente (FK)" style="ellipse;whiteSpace=wrap;html=1;fillColor=#e1d5e7;strokeColor=#9673a6;" vertex="1" parent="1">
          <mxGeometry x="-630" y="1060" width="120" height="40" as="geometry" />
        </mxCell>
        <mxCell id="LzaTwzIRmnWLG_7O5klw-21" value="id_restaurante&amp;nbsp; (FK)" style="ellipse;whiteSpace=wrap;html=1;fillColor=#e1d5e7;strokeColor=#9673a6;" vertex="1" parent="1">
          <mxGeometry x="-630" y="1110" width="120" height="40" as="geometry" />
        </mxCell>
        <mxCell id="LzaTwzIRmnWLG_7O5klw-25" style="edgeStyle=orthogonalEdgeStyle;rounded=0;orthogonalLoop=1;jettySize=auto;html=1;entryX=1.005;entryY=0.696;entryDx=0;entryDy=0;entryPerimeter=0;" edge="1" parent="1" source="E5guHQnxpf9Bkp1orqkg-62" target="LzaTwzIRmnWLG_7O5klw-21">
          <mxGeometry relative="1" as="geometry" />
        </mxCell>
        <mxCell id="LzaTwzIRmnWLG_7O5klw-27" value="id_pedido (FK)" style="ellipse;whiteSpace=wrap;html=1;fillColor=#e1d5e7;strokeColor=#9673a6;" vertex="1" parent="1">
          <mxGeometry x="-680" y="362" width="120" height="40" as="geometry" />
        </mxCell>
        <mxCell id="LzaTwzIRmnWLG_7O5klw-28" style="edgeStyle=orthogonalEdgeStyle;rounded=0;orthogonalLoop=1;jettySize=auto;html=1;entryX=0.95;entryY=0.521;entryDx=0;entryDy=0;entryPerimeter=0;" edge="1" parent="1" source="E5guHQnxpf9Bkp1orqkg-50" target="LzaTwzIRmnWLG_7O5klw-27">
          <mxGeometry relative="1" as="geometry" />
        </mxCell>
        <mxCell id="LzaTwzIRmnWLG_7O5klw-29" style="edgeStyle=orthogonalEdgeStyle;rounded=0;orthogonalLoop=1;jettySize=auto;html=1;entryX=1;entryY=0.5;entryDx=0;entryDy=0;" edge="1" parent="1" source="LzaTwzIRmnWLG_7O5klw-36" target="LzaTwzIRmnWLG_7O5klw-37">
          <mxGeometry relative="1" as="geometry" />
        </mxCell>
        <mxCell id="LzaTwzIRmnWLG_7O5klw-30" style="edgeStyle=orthogonalEdgeStyle;rounded=0;orthogonalLoop=1;jettySize=auto;html=1;entryX=1;entryY=0.5;entryDx=0;entryDy=0;" edge="1" parent="1" source="LzaTwzIRmnWLG_7O5klw-36" target="LzaTwzIRmnWLG_7O5klw-40">
          <mxGeometry relative="1" as="geometry" />
        </mxCell>
        <mxCell id="LzaTwzIRmnWLG_7O5klw-31" style="edgeStyle=orthogonalEdgeStyle;rounded=0;orthogonalLoop=1;jettySize=auto;html=1;entryX=1;entryY=0.5;entryDx=0;entryDy=0;" edge="1" parent="1" source="LzaTwzIRmnWLG_7O5klw-36" target="LzaTwzIRmnWLG_7O5klw-39">
          <mxGeometry relative="1" as="geometry" />
        </mxCell>
        <mxCell id="LzaTwzIRmnWLG_7O5klw-32" style="edgeStyle=orthogonalEdgeStyle;rounded=0;orthogonalLoop=1;jettySize=auto;html=1;entryX=1;entryY=0.5;entryDx=0;entryDy=0;" edge="1" parent="1" source="LzaTwzIRmnWLG_7O5klw-36" target="LzaTwzIRmnWLG_7O5klw-38">
          <mxGeometry relative="1" as="geometry" />
        </mxCell>
        <mxCell id="LzaTwzIRmnWLG_7O5klw-33" style="edgeStyle=orthogonalEdgeStyle;rounded=0;orthogonalLoop=1;jettySize=auto;html=1;entryX=1;entryY=0.5;entryDx=0;entryDy=0;" edge="1" parent="1" source="LzaTwzIRmnWLG_7O5klw-36" target="LzaTwzIRmnWLG_7O5klw-42">
          <mxGeometry relative="1" as="geometry" />
        </mxCell>
        <mxCell id="LzaTwzIRmnWLG_7O5klw-34" style="edgeStyle=orthogonalEdgeStyle;rounded=0;orthogonalLoop=1;jettySize=auto;html=1;entryX=1;entryY=0.5;entryDx=0;entryDy=0;" edge="1" parent="1" source="LzaTwzIRmnWLG_7O5klw-36" target="LzaTwzIRmnWLG_7O5klw-43">
          <mxGeometry relative="1" as="geometry" />
        </mxCell>
        <mxCell id="LzaTwzIRmnWLG_7O5klw-35" style="edgeStyle=orthogonalEdgeStyle;rounded=0;orthogonalLoop=1;jettySize=auto;html=1;entryX=1;entryY=0.5;entryDx=0;entryDy=0;" edge="1" parent="1" source="LzaTwzIRmnWLG_7O5klw-36" target="LzaTwzIRmnWLG_7O5klw-44">
          <mxGeometry relative="1" as="geometry">
            <mxPoint x="-566" y="2245" as="targetPoint" />
          </mxGeometry>
        </mxCell>
        <mxCell id="LzaTwzIRmnWLG_7O5klw-123" style="edgeStyle=orthogonalEdgeStyle;rounded=0;orthogonalLoop=1;jettySize=auto;html=1;entryX=0.5;entryY=1;entryDx=0;entryDy=0;" edge="1" parent="1" source="LzaTwzIRmnWLG_7O5klw-36" target="LzaTwzIRmnWLG_7O5klw-122">
          <mxGeometry relative="1" as="geometry" />
        </mxCell>
        <mxCell id="LzaTwzIRmnWLG_7O5klw-114" style="edgeStyle=orthogonalEdgeStyle;rounded=0;orthogonalLoop=1;jettySize=auto;html=1;entryX=0.5;entryY=0;entryDx=0;entryDy=0;" edge="1" parent="1" source="LzaTwzIRmnWLG_7O5klw-36" target="LzaTwzIRmnWLG_7O5klw-113">
          <mxGeometry relative="1" as="geometry" />
        </mxCell>
        <mxCell id="LzaTwzIRmnWLG_7O5klw-36" value="repartidores" style="rounded=0;whiteSpace=wrap;html=1;fillColor=#dae8fc;strokeColor=#6c8ebf;" vertex="1" parent="1">
          <mxGeometry x="-410" y="2000" width="120" height="60" as="geometry" />
        </mxCell>
        <mxCell id="LzaTwzIRmnWLG_7O5klw-37" value="id_repartidores (PK)" style="ellipse;whiteSpace=wrap;html=1;fillColor=#f8cecc;strokeColor=#b85450;" vertex="1" parent="1">
          <mxGeometry x="-686" y="1810" width="120" height="40" as="geometry" />
        </mxCell>
        <mxCell id="LzaTwzIRmnWLG_7O5klw-38" value="telefono" style="ellipse;whiteSpace=wrap;html=1;fillColor=#a0522d;strokeColor=#6D1F00;fontColor=#ffffff;" vertex="1" parent="1">
          <mxGeometry x="-686" y="2020" width="120" height="40" as="geometry" />
        </mxCell>
        <mxCell id="LzaTwzIRmnWLG_7O5klw-39" value="apellido" style="ellipse;whiteSpace=wrap;html=1;fillColor=#a0522d;strokeColor=#6D1F00;fontColor=#ffffff;" vertex="1" parent="1">
          <mxGeometry x="-686" y="1950" width="120" height="40" as="geometry" />
        </mxCell>
        <mxCell id="LzaTwzIRmnWLG_7O5klw-40" value="nombre" style="ellipse;whiteSpace=wrap;html=1;fillColor=#a0522d;strokeColor=#6D1F00;fontColor=#ffffff;" vertex="1" parent="1">
          <mxGeometry x="-686" y="1880" width="120" height="40" as="geometry" />
        </mxCell>
        <mxCell id="LzaTwzIRmnWLG_7O5klw-42" value="vehiculo" style="ellipse;whiteSpace=wrap;html=1;fillColor=#a0522d;strokeColor=#6D1F00;fontColor=#ffffff;" vertex="1" parent="1">
          <mxGeometry x="-686" y="2080" width="120" height="40" as="geometry" />
        </mxCell>
        <mxCell id="LzaTwzIRmnWLG_7O5klw-43" value="eatado" style="ellipse;whiteSpace=wrap;html=1;fillColor=#a0522d;strokeColor=#6D1F00;fontColor=#ffffff;" vertex="1" parent="1">
          <mxGeometry x="-656" y="2220" width="120" height="40" as="geometry" />
        </mxCell>
        <mxCell id="LzaTwzIRmnWLG_7O5klw-44" value="placa" style="ellipse;whiteSpace=wrap;html=1;fillColor=#a0522d;strokeColor=#6D1F00;fontColor=#ffffff;" vertex="1" parent="1">
          <mxGeometry x="-676" y="2160" width="120" height="40" as="geometry" />
        </mxCell>
        <mxCell id="LzaTwzIRmnWLG_7O5klw-45" style="edgeStyle=orthogonalEdgeStyle;rounded=0;orthogonalLoop=1;jettySize=auto;html=1;entryX=1;entryY=0.5;entryDx=0;entryDy=0;" edge="1" parent="1" source="LzaTwzIRmnWLG_7O5klw-52" target="LzaTwzIRmnWLG_7O5klw-53">
          <mxGeometry relative="1" as="geometry" />
        </mxCell>
        <mxCell id="LzaTwzIRmnWLG_7O5klw-46" style="edgeStyle=orthogonalEdgeStyle;rounded=0;orthogonalLoop=1;jettySize=auto;html=1;entryX=1;entryY=0.5;entryDx=0;entryDy=0;" edge="1" parent="1" source="LzaTwzIRmnWLG_7O5klw-52" target="LzaTwzIRmnWLG_7O5klw-56">
          <mxGeometry relative="1" as="geometry" />
        </mxCell>
        <mxCell id="LzaTwzIRmnWLG_7O5klw-47" style="edgeStyle=orthogonalEdgeStyle;rounded=0;orthogonalLoop=1;jettySize=auto;html=1;entryX=1;entryY=0.5;entryDx=0;entryDy=0;" edge="1" parent="1" source="LzaTwzIRmnWLG_7O5klw-52" target="LzaTwzIRmnWLG_7O5klw-55">
          <mxGeometry relative="1" as="geometry" />
        </mxCell>
        <mxCell id="LzaTwzIRmnWLG_7O5klw-48" style="edgeStyle=orthogonalEdgeStyle;rounded=0;orthogonalLoop=1;jettySize=auto;html=1;entryX=1;entryY=0.5;entryDx=0;entryDy=0;" edge="1" parent="1" source="LzaTwzIRmnWLG_7O5klw-52" target="LzaTwzIRmnWLG_7O5klw-54">
          <mxGeometry relative="1" as="geometry" />
        </mxCell>
        <mxCell id="LzaTwzIRmnWLG_7O5klw-50" style="edgeStyle=orthogonalEdgeStyle;rounded=0;orthogonalLoop=1;jettySize=auto;html=1;entryX=1;entryY=0.5;entryDx=0;entryDy=0;" edge="1" parent="1" source="LzaTwzIRmnWLG_7O5klw-52" target="LzaTwzIRmnWLG_7O5klw-59">
          <mxGeometry relative="1" as="geometry" />
        </mxCell>
        <mxCell id="LzaTwzIRmnWLG_7O5klw-120" style="edgeStyle=orthogonalEdgeStyle;rounded=0;orthogonalLoop=1;jettySize=auto;html=1;entryX=0.5;entryY=1;entryDx=0;entryDy=0;" edge="1" parent="1" source="LzaTwzIRmnWLG_7O5klw-52" target="LzaTwzIRmnWLG_7O5klw-119">
          <mxGeometry relative="1" as="geometry" />
        </mxCell>
        <mxCell id="LzaTwzIRmnWLG_7O5klw-107" style="edgeStyle=orthogonalEdgeStyle;rounded=0;orthogonalLoop=1;jettySize=auto;html=1;" edge="1" parent="1" source="LzaTwzIRmnWLG_7O5klw-52" target="LzaTwzIRmnWLG_7O5klw-113">
          <mxGeometry relative="1" as="geometry">
            <mxPoint x="-300" y="1780" as="targetPoint" />
          </mxGeometry>
        </mxCell>
        <mxCell id="LzaTwzIRmnWLG_7O5klw-121" style="edgeStyle=orthogonalEdgeStyle;rounded=0;orthogonalLoop=1;jettySize=auto;html=1;" edge="1" parent="1" source="LzaTwzIRmnWLG_7O5klw-52" target="LzaTwzIRmnWLG_7O5klw-122">
          <mxGeometry relative="1" as="geometry">
            <mxPoint x="-360" y="1780.000000000001" as="targetPoint" />
          </mxGeometry>
        </mxCell>
        <mxCell id="LzaTwzIRmnWLG_7O5klw-52" value="detalle entregas" style="rounded=0;whiteSpace=wrap;html=1;fillColor=#dae8fc;strokeColor=#6c8ebf;" vertex="1" parent="1">
          <mxGeometry x="-480" y="1495" width="120" height="60" as="geometry" />
        </mxCell>
        <mxCell id="LzaTwzIRmnWLG_7O5klw-53" value="id_entrega (PK)" style="ellipse;whiteSpace=wrap;html=1;fillColor=#f8cecc;strokeColor=#b85450;" vertex="1" parent="1">
          <mxGeometry x="-656" y="1315" width="120" height="40" as="geometry" />
        </mxCell>
        <mxCell id="LzaTwzIRmnWLG_7O5klw-54" value="estado_entrega" style="ellipse;whiteSpace=wrap;html=1;fillColor=#a0522d;strokeColor=#6D1F00;fontColor=#ffffff;" vertex="1" parent="1">
          <mxGeometry x="-656" y="1525" width="120" height="40" as="geometry" />
        </mxCell>
        <mxCell id="LzaTwzIRmnWLG_7O5klw-55" value="fecha_entrega" style="ellipse;whiteSpace=wrap;html=1;fillColor=#a0522d;strokeColor=#6D1F00;fontColor=#ffffff;" vertex="1" parent="1">
          <mxGeometry x="-656" y="1455" width="120" height="40" as="geometry" />
        </mxCell>
        <mxCell id="LzaTwzIRmnWLG_7O5klw-56" value="fecha_asinacion" style="ellipse;whiteSpace=wrap;html=1;fillColor=#a0522d;strokeColor=#6D1F00;fontColor=#ffffff;" vertex="1" parent="1">
          <mxGeometry x="-656" y="1385" width="120" height="40" as="geometry" />
        </mxCell>
        <mxCell id="LzaTwzIRmnWLG_7O5klw-59" value="id_pedido (FK)" style="ellipse;whiteSpace=wrap;html=1;fillColor=#e1d5e7;strokeColor=#9673a6;" vertex="1" parent="1">
          <mxGeometry x="-660" y="1705" width="120" height="40" as="geometry" />
        </mxCell>
        <mxCell id="LzaTwzIRmnWLG_7O5klw-60" value="id_repartidor&amp;nbsp; (FK)" style="ellipse;whiteSpace=wrap;html=1;fillColor=#e1d5e7;strokeColor=#9673a6;" vertex="1" parent="1">
          <mxGeometry x="-660" y="1605" width="120" height="40" as="geometry" />
        </mxCell>
        <mxCell id="LzaTwzIRmnWLG_7O5klw-61" style="edgeStyle=orthogonalEdgeStyle;rounded=0;orthogonalLoop=1;jettySize=auto;html=1;entryX=1.005;entryY=0.696;entryDx=0;entryDy=0;entryPerimeter=0;" edge="1" parent="1" source="LzaTwzIRmnWLG_7O5klw-52" target="LzaTwzIRmnWLG_7O5klw-60">
          <mxGeometry relative="1" as="geometry" />
        </mxCell>
        <mxCell id="LzaTwzIRmnWLG_7O5klw-89" value="" style="rhombus;whiteSpace=wrap;html=1;" vertex="1" parent="1">
          <mxGeometry x="-60" y="665" width="80" height="80" as="geometry" />
        </mxCell>
        <mxCell id="LzaTwzIRmnWLG_7O5klw-91" value="1" style="text;html=1;align=center;verticalAlign=middle;resizable=0;points=[];autosize=1;strokeColor=none;fillColor=none;" vertex="1" parent="1">
          <mxGeometry x="-255" y="608" width="30" height="30" as="geometry" />
        </mxCell>
        <mxCell id="LzaTwzIRmnWLG_7O5klw-94" value="" style="rhombus;whiteSpace=wrap;html=1;" vertex="1" parent="1">
          <mxGeometry x="-175" y="-270" width="80" height="80" as="geometry" />
        </mxCell>
        <mxCell id="LzaTwzIRmnWLG_7O5klw-99" value="" style="rhombus;whiteSpace=wrap;html=1;" vertex="1" parent="1">
          <mxGeometry x="-310" y="530" width="80" height="80" as="geometry" />
        </mxCell>
        <mxCell id="LzaTwzIRmnWLG_7O5klw-96" value="1" style="text;html=1;align=center;verticalAlign=middle;resizable=0;points=[];autosize=1;strokeColor=none;fillColor=none;" vertex="1" parent="1">
          <mxGeometry x="414" y="1350" width="30" height="30" as="geometry" />
        </mxCell>
        <mxCell id="LzaTwzIRmnWLG_7O5klw-101" value="n" style="text;html=1;align=center;verticalAlign=middle;resizable=0;points=[];autosize=1;strokeColor=none;fillColor=none;" vertex="1" parent="1">
          <mxGeometry x="-15" y="748" width="30" height="30" as="geometry" />
        </mxCell>
        <mxCell id="LzaTwzIRmnWLG_7O5klw-97" value="n" style="text;html=1;align=center;verticalAlign=middle;resizable=0;points=[];autosize=1;strokeColor=none;fillColor=none;" vertex="1" parent="1">
          <mxGeometry x="414" y="1450" width="30" height="30" as="geometry" />
        </mxCell>
        <mxCell id="LzaTwzIRmnWLG_7O5klw-102" value="1" style="text;html=1;align=center;verticalAlign=middle;resizable=0;points=[];autosize=1;strokeColor=none;fillColor=none;" vertex="1" parent="1">
          <mxGeometry x="-65" y="618" width="30" height="30" as="geometry" />
        </mxCell>
        <mxCell id="LzaTwzIRmnWLG_7O5klw-103" value="n" style="text;html=1;align=center;verticalAlign=middle;resizable=0;points=[];autosize=1;strokeColor=none;fillColor=none;" vertex="1" parent="1">
          <mxGeometry x="-265" y="478" width="30" height="30" as="geometry" />
        </mxCell>
        <mxCell id="LzaTwzIRmnWLG_7O5klw-104" style="edgeStyle=orthogonalEdgeStyle;rounded=0;orthogonalLoop=1;jettySize=auto;html=1;entryX=0.5;entryY=1;entryDx=0;entryDy=0;exitX=1;exitY=0.5;exitDx=0;exitDy=0;" edge="1" parent="1" source="E5guHQnxpf9Bkp1orqkg-62" target="LzaTwzIRmnWLG_7O5klw-89">
          <mxGeometry relative="1" as="geometry">
            <mxPoint x="-334" y="880" as="sourcePoint" />
            <mxPoint x="-14.999999999999991" y="745" as="targetPoint" />
          </mxGeometry>
        </mxCell>
        <mxCell id="LzaTwzIRmnWLG_7O5klw-109" value="" style="rhombus;whiteSpace=wrap;html=1;" vertex="1" parent="1">
          <mxGeometry x="-265" y="1033" width="80" height="80" as="geometry" />
        </mxCell>
        <mxCell id="LzaTwzIRmnWLG_7O5klw-111" value="1" style="text;html=1;align=center;verticalAlign=middle;resizable=0;points=[];autosize=1;strokeColor=none;fillColor=none;" vertex="1" parent="1">
          <mxGeometry x="-290" y="1013" width="30" height="30" as="geometry" />
        </mxCell>
        <mxCell id="LzaTwzIRmnWLG_7O5klw-112" value="n" style="text;html=1;align=center;verticalAlign=middle;resizable=0;points=[];autosize=1;strokeColor=none;fillColor=none;" vertex="1" parent="1">
          <mxGeometry x="-175" y="1028" width="30" height="30" as="geometry" />
        </mxCell>
        <mxCell id="LzaTwzIRmnWLG_7O5klw-119" value="" style="rhombus;whiteSpace=wrap;html=1;" vertex="1" parent="1">
          <mxGeometry x="-430" y="1200" width="80" height="80" as="geometry" />
        </mxCell>
        <mxCell id="LzaTwzIRmnWLG_7O5klw-113" value="" style="rhombus;whiteSpace=wrap;html=1;" vertex="1" parent="1">
          <mxGeometry x="-340" y="1740" width="80" height="80" as="geometry" />
        </mxCell>
        <mxCell id="LzaTwzIRmnWLG_7O5klw-122" value="" style="rhombus;whiteSpace=wrap;html=1;" vertex="1" parent="1">
          <mxGeometry x="-400" y="1740.000000000001" width="80" height="80" as="geometry" />
        </mxCell>
        <mxCell id="LzaTwzIRmnWLG_7O5klw-115" value="1" style="text;html=1;align=center;verticalAlign=middle;resizable=0;points=[];autosize=1;strokeColor=none;fillColor=none;" vertex="1" parent="1">
          <mxGeometry x="-285" y="1708" width="30" height="30" as="geometry" />
        </mxCell>
        <mxCell id="LzaTwzIRmnWLG_7O5klw-124" value="1" style="text;html=1;align=center;verticalAlign=middle;resizable=0;points=[];autosize=1;strokeColor=none;fillColor=none;" vertex="1" parent="1">
          <mxGeometry x="-385" y="1158" width="30" height="30" as="geometry" />
        </mxCell>
        <mxCell id="LzaTwzIRmnWLG_7O5klw-116" value="n" style="text;html=1;align=center;verticalAlign=middle;resizable=0;points=[];autosize=1;strokeColor=none;fillColor=none;" vertex="1" parent="1">
          <mxGeometry x="-285" y="1808" width="30" height="30" as="geometry" />
        </mxCell>
        <mxCell id="LzaTwzIRmnWLG_7O5klw-125" value="1" style="text;html=1;align=center;verticalAlign=middle;resizable=0;points=[];autosize=1;strokeColor=none;fillColor=none;" vertex="1" parent="1">
          <mxGeometry x="-385" y="1278" width="30" height="30" as="geometry" />
        </mxCell>
        <mxCell id="LzaTwzIRmnWLG_7O5klw-126" value="n" style="text;html=1;align=center;verticalAlign=middle;resizable=0;points=[];autosize=1;strokeColor=none;fillColor=none;" vertex="1" parent="1">
          <mxGeometry x="-355" y="1708" width="30" height="30" as="geometry" />
        </mxCell>
        <mxCell id="LzaTwzIRmnWLG_7O5klw-127" value="1" style="text;html=1;align=center;verticalAlign=middle;resizable=0;points=[];autosize=1;strokeColor=none;fillColor=none;" vertex="1" parent="1">
          <mxGeometry x="-355" y="1808" width="30" height="30" as="geometry" />
        </mxCell>
        <mxCell id="LzaTwzIRmnWLG_7O5klw-129" value="1" style="text;html=1;align=center;verticalAlign=middle;resizable=0;points=[];autosize=1;strokeColor=none;fillColor=none;" vertex="1" parent="1">
          <mxGeometry x="-125" y="-320" width="30" height="30" as="geometry" />
        </mxCell>
        <mxCell id="LzaTwzIRmnWLG_7O5klw-130" value="n" style="text;html=1;align=center;verticalAlign=middle;resizable=0;points=[];autosize=1;strokeColor=none;fillColor=none;" vertex="1" parent="1">
          <mxGeometry x="-215" y="-270" width="30" height="30" as="geometry" />
        </mxCell>
        <mxCell id="LzaTwzIRmnWLG_7O5klw-131" value="aun me falta corregir sali un momento" style="text;html=1;align=center;verticalAlign=middle;resizable=0;points=[];autosize=1;strokeColor=none;fillColor=none;" vertex="1" parent="1">
          <mxGeometry x="54" y="1708" width="220" height="30" as="geometry" />
        </mxCell>
        <mxCell id="LzaTwzIRmnWLG_7O5klw-133" value="" style="rhombus;whiteSpace=wrap;html=1;" vertex="1" parent="1">
          <mxGeometry x="-360" y="70" width="80" height="80" as="geometry" />
        </mxCell>
        <mxCell id="LzaTwzIRmnWLG_7O5klw-135" value="1" style="text;html=1;align=center;verticalAlign=middle;resizable=0;points=[];autosize=1;strokeColor=none;fillColor=none;" vertex="1" parent="1">
          <mxGeometry x="-315" y="38" width="30" height="30" as="geometry" />
        </mxCell>
        <mxCell id="LzaTwzIRmnWLG_7O5klw-136" value="n" style="text;html=1;align=center;verticalAlign=middle;resizable=0;points=[];autosize=1;strokeColor=none;fillColor=none;" vertex="1" parent="1">
          <mxGeometry x="-315" y="138" width="30" height="30" as="geometry" />
        </mxCell>
        <mxCell id="LzaTwzIRmnWLG_7O5klw-132" style="edgeStyle=orthogonalEdgeStyle;rounded=0;orthogonalLoop=1;jettySize=auto;html=1;" edge="1" parent="1" source="E5guHQnxpf9Bkp1orqkg-35" target="LzaTwzIRmnWLG_7O5klw-133">
          <mxGeometry relative="1" as="geometry">
            <mxPoint x="-320" y="110" as="targetPoint" />
          </mxGeometry>
        </mxCell>
        <mxCell id="LzaTwzIRmnWLG_7O5klw-134" style="edgeStyle=orthogonalEdgeStyle;rounded=0;orthogonalLoop=1;jettySize=auto;html=1;entryX=0.5;entryY=1;entryDx=0;entryDy=0;exitX=0.5;exitY=0;exitDx=0;exitDy=0;" edge="1" parent="1" source="E5guHQnxpf9Bkp1orqkg-50" target="LzaTwzIRmnWLG_7O5klw-133">
          <mxGeometry relative="1" as="geometry" />
        </mxCell>
        <mxCell id="LzaTwzIRmnWLG_7O5klw-118" style="edgeStyle=orthogonalEdgeStyle;rounded=0;orthogonalLoop=1;jettySize=auto;html=1;" edge="1" parent="1" source="E5guHQnxpf9Bkp1orqkg-62" target="LzaTwzIRmnWLG_7O5klw-119">
          <mxGeometry relative="1" as="geometry">
            <mxPoint x="-390" y="1240" as="targetPoint" />
          </mxGeometry>
        </mxCell>
      </root>
    </mxGraphModel>
  </diagram>
</mxfile>
